<svg width="64" height="22" viewBox="0 0 64 22" fill="none" xmlns="http://www.w3.org/2000/svg">
<rect x="0.5" y="0.5" width="63" height="21" stroke="#BCBCBC"/>
<path d="M7.94 17V5.864H9.444L15.796 14.6V5.864H17.3V17H15.796L9.444 8.264V17H7.94ZM19.5184 11.432C19.5184 10.296 19.7424 9.304 20.1904 8.424C20.6224 7.544 21.2464 6.856 22.0304 6.36C22.8144 5.864 23.7264 5.624 24.7344 5.624C26.0464 5.624 27.1024 5.944 27.8864 6.6C28.6704 7.256 29.1824 8.152 29.4544 9.272H27.8704C27.6944 8.584 27.3264 8.024 26.7984 7.624C26.2704 7.224 25.5824 7.016 24.7344 7.016C24.0144 7.016 23.3904 7.192 22.8304 7.544C22.2704 7.912 21.8384 8.424 21.5344 9.08C21.2304 9.736 21.0704 10.52 21.0704 11.432C21.0704 12.328 21.2304 13.112 21.5344 13.768C21.8384 14.424 22.2704 14.936 22.8304 15.304C23.3904 15.672 24.0144 15.848 24.7344 15.848C25.5824 15.848 26.2704 15.656 26.8144 15.256C27.3584 14.856 27.7104 14.328 27.8864 13.672H29.4544C29.1984 14.744 28.6704 15.608 27.8864 16.264C27.1024 16.92 26.0464 17.24 24.7344 17.24C23.7264 17.24 22.8144 16.984 22.0304 16.488C21.2464 15.992 20.6224 15.32 20.1904 14.44C19.7424 13.56 19.5184 12.568 19.5184 11.432ZM31.4683 13V11.736H36.5883V13H31.4683ZM42.7703 17V7.448L39.9383 8.408V7.032L44.2583 5.656V17H42.7703ZM56.4551 5.864V7.048L52.0391 17H50.4391L54.8551 7.208H48.7111V5.864H56.4551Z" fill="#BCBCBC"/>
</svg>
