<svg width="55" height="22" viewBox="0 0 55 22" fill="none" xmlns="http://www.w3.org/2000/svg">
<rect x="0.5" y="0.5" width="54" height="21" stroke="#BCBCBC"/>
<path d="M12.612 17H11.092V7.224H7.14V5.864H16.564V7.224H12.612V17ZM27.9071 5.864L23.4751 17H21.9231L17.4911 5.864H19.1391L22.7391 15.176L26.3071 5.864H27.9071ZM29.0933 13V11.736H34.2133V13H29.0933ZM41.7233 17.24C40.6513 17.24 39.7073 16.984 38.8913 16.488C38.0753 15.992 37.4513 15.304 37.0033 14.424C36.5393 13.544 36.3153 12.552 36.3153 11.432C36.3153 10.296 36.5393 9.304 37.0033 8.424C37.4673 7.544 38.1073 6.856 38.9233 6.36C39.7393 5.864 40.6673 5.624 41.7073 5.624C42.8753 5.624 43.8833 5.896 44.7153 6.44C45.5473 7 46.1393 7.768 46.4753 8.744H44.8753C44.6353 8.232 44.2513 7.816 43.6913 7.496C43.1313 7.176 42.4753 7.016 41.7073 7.016C40.9553 7.016 40.2993 7.192 39.7233 7.56C39.1473 7.928 38.6993 8.44 38.3633 9.096C38.0273 9.752 37.8673 10.536 37.8673 11.432C37.8673 12.328 38.0273 13.112 38.3633 13.768C38.6833 14.424 39.1313 14.936 39.7233 15.304C40.2993 15.672 40.9713 15.848 41.7553 15.848C42.4273 15.848 43.0193 15.704 43.5473 15.416C44.0593 15.144 44.4593 14.76 44.7633 14.264C45.0513 13.768 45.1953 13.208 45.1953 12.584V12.296H41.7073V10.936H46.7153V12.328C46.7153 13.272 46.5073 14.104 46.0913 14.84C45.6753 15.592 45.0993 16.168 44.3472 16.6C43.5953 17.032 42.7313 17.24 41.7233 17.24Z" fill="#BCBCBC"/>
</svg>
