<svg width="25" height="22" viewBox="0 0 25 22" fill="none" xmlns="http://www.w3.org/2000/svg">
<rect x="0.5" y="0.5" width="24" height="21" stroke="#BCBCBC"/>
<path d="M12.692 17.24C11.62 17.24 10.676 16.984 9.86 16.488C9.044 15.992 8.42 15.304 7.972 14.424C7.508 13.544 7.284 12.552 7.284 11.432C7.284 10.296 7.508 9.304 7.972 8.424C8.436 7.544 9.076 6.856 9.892 6.36C10.708 5.864 11.636 5.624 12.676 5.624C13.844 5.624 14.852 5.896 15.684 6.44C16.516 7 17.108 7.768 17.444 8.744H15.844C15.604 8.232 15.22 7.816 14.66 7.496C14.1 7.176 13.444 7.016 12.676 7.016C11.924 7.016 11.268 7.192 10.692 7.56C10.116 7.928 9.668 8.44 9.332 9.096C8.996 9.752 8.836 10.536 8.836 11.432C8.836 12.328 8.996 13.112 9.332 13.768C9.652 14.424 10.1 14.936 10.692 15.304C11.268 15.672 11.94 15.848 12.724 15.848C13.396 15.848 13.988 15.704 14.516 15.416C15.028 15.144 15.428 14.76 15.732 14.264C16.02 13.768 16.164 13.208 16.164 12.584V12.296H12.676V10.936H17.684V12.328C17.684 13.272 17.476 14.104 17.06 14.84C16.644 15.592 16.068 16.168 15.316 16.6C14.564 17.032 13.7 17.24 12.692 17.24Z" fill="#BCBCBC"/>
</svg>
