<svg width="62" height="22" viewBox="0 0 62 22" fill="none" xmlns="http://www.w3.org/2000/svg">
<rect x="0.5" y="0.5" width="61" height="21" stroke="#BCBCBC"/>
<path d="M12.612 17H11.092V7.224H7.14V5.864H16.564V7.224H12.612V17ZM27.9071 5.864L23.4751 17H21.9231L17.4911 5.864H19.1391L22.7391 15.176L26.3071 5.864H27.9071ZM29.0933 13V11.736H34.2133V13H29.0933ZM38.9469 17V12.712L34.7869 5.864H36.5469L39.7469 11.256L42.8989 5.864H44.5949L40.4669 12.68V17H38.9469ZM53.5958 5.864V7.048L49.1798 17H47.5798L51.9958 7.208H45.8518V5.864H53.5958Z" fill="#BCBCBC"/>
</svg>
