<svg width="63" height="22" viewBox="0 0 63 22" fill="none" xmlns="http://www.w3.org/2000/svg">
<rect x="0.5" y="0.5" width="62" height="21" stroke="#BCBCBC"/>
<path d="M7.94 17V5.864H12.036C13.46 5.864 14.548 6.184 15.284 6.84C16.02 7.496 16.388 8.344 16.388 9.416C16.388 10.488 16.02 11.352 15.284 12.008C14.548 12.664 13.46 12.984 12.036 12.984H9.46V17H7.94ZM9.46 11.624H11.828C12.836 11.624 13.604 11.432 14.1 11.048C14.596 10.664 14.836 10.12 14.836 9.416C14.836 8.728 14.596 8.184 14.1 7.8C13.604 7.416 12.836 7.224 11.828 7.224H9.46V11.624ZM23.2389 17.24C22.1669 17.24 21.2229 16.984 20.4069 16.488C19.5909 15.992 18.9669 15.304 18.5189 14.424C18.0549 13.544 17.8309 12.552 17.8309 11.432C17.8309 10.296 18.0549 9.304 18.5189 8.424C18.9829 7.544 19.6229 6.856 20.4389 6.36C21.2549 5.864 22.1829 5.624 23.2229 5.624C24.3909 5.624 25.3989 5.896 26.2309 6.44C27.0629 7 27.6549 7.768 27.9909 8.744H26.3909C26.1509 8.232 25.7669 7.816 25.2069 7.496C24.6469 7.176 23.9909 7.016 23.2229 7.016C22.4709 7.016 21.8149 7.192 21.2389 7.56C20.6629 7.928 20.2149 8.44 19.8789 9.096C19.5429 9.752 19.3829 10.536 19.3829 11.432C19.3829 12.328 19.5429 13.112 19.8789 13.768C20.1989 14.424 20.6469 14.936 21.2389 15.304C21.8149 15.672 22.4869 15.848 23.2709 15.848C23.9429 15.848 24.5349 15.704 25.0629 15.416C25.5749 15.144 25.9749 14.76 26.2789 14.264C26.5669 13.768 26.7109 13.208 26.7109 12.584V12.296H23.2229V10.936H28.2309V12.328C28.2309 13.272 28.0229 14.104 27.6069 14.84C27.1909 15.592 26.6149 16.168 25.8629 16.6C25.1109 17.032 24.2469 17.24 23.2389 17.24ZM30.3589 13V11.736H35.4789V13H30.3589ZM41.6609 17V7.448L38.8289 8.408V7.032L43.1489 5.656V17H41.6609ZM51.5058 17.24C50.3698 17.24 49.4418 16.984 48.7218 16.456C48.0018 15.944 47.5378 15.24 47.3298 14.344H48.8498C49.0258 14.84 49.3298 15.208 49.7938 15.48C50.2578 15.752 50.8177 15.88 51.4898 15.88C51.9058 15.88 52.3058 15.8 52.6738 15.656C53.0418 15.512 53.3298 15.288 53.5698 14.984C53.8098 14.68 53.9218 14.312 53.9218 13.848C53.9218 13.256 53.6978 12.792 53.2498 12.472C52.7858 12.168 52.1938 12.008 51.4418 12.008H50.0978V10.664H51.4098C52.0658 10.664 52.5938 10.504 53.0098 10.184C53.4098 9.864 53.6178 9.416 53.6178 8.856C53.6178 8.232 53.3938 7.752 52.9618 7.448C52.5138 7.144 51.9858 6.984 51.3618 6.984C50.7378 6.984 50.2258 7.128 49.8098 7.4C49.3778 7.672 49.0898 8.04 48.9457 8.504H47.4418C47.6658 7.656 48.1298 6.952 48.8178 6.424C49.5058 5.896 50.3698 5.624 51.4098 5.624C52.0818 5.624 52.7058 5.752 53.2658 5.992C53.8258 6.248 54.2898 6.616 54.6258 7.08C54.9618 7.544 55.1218 8.12 55.1218 8.792C55.1218 9.384 54.9618 9.896 54.6418 10.328C54.3058 10.76 53.8578 11.064 53.2978 11.256C53.9858 11.448 54.5138 11.784 54.8818 12.248C55.2498 12.712 55.4418 13.272 55.4418 13.928C55.4418 14.632 55.2658 15.224 54.8978 15.72C54.5298 16.216 54.0498 16.6 53.4578 16.856C52.8658 17.112 52.2098 17.24 51.5058 17.24Z" fill="#BCBCBC"/>
</svg>
