<svg width="65" height="22" viewBox="0 0 65 22" fill="none" xmlns="http://www.w3.org/2000/svg">
<rect x="0.5" y="0.5" width="64" height="21" stroke="#BCBCBC"/>
<path d="M12.612 17H11.092V7.224H7.14V5.864H16.564V7.224H12.612V17ZM27.9071 5.864L23.4751 17H21.9231L17.4911 5.864H19.1391L22.7391 15.176L26.3071 5.864H27.9071ZM29.0933 13V11.736H34.2133V13H29.0933ZM36.9713 17V5.864H41.0673C42.4913 5.864 43.5793 6.184 44.3153 6.84C45.0513 7.496 45.4193 8.344 45.4193 9.416C45.4193 10.488 45.0513 11.352 44.3153 12.008C43.5793 12.664 42.4913 12.984 41.0673 12.984H38.4913V17H36.9713ZM38.4913 11.624H40.8593C41.8673 11.624 42.6353 11.432 43.1313 11.048C43.6273 10.664 43.8673 10.12 43.8673 9.416C43.8673 8.728 43.6273 8.184 43.1313 7.8C42.6353 7.416 41.8673 7.224 40.8593 7.224H38.4913V11.624ZM52.2701 17.24C51.1981 17.24 50.2541 16.984 49.4381 16.488C48.6221 15.992 47.9981 15.304 47.5501 14.424C47.0861 13.544 46.8621 12.552 46.8621 11.432C46.8621 10.296 47.0861 9.304 47.5501 8.424C48.0141 7.544 48.6541 6.856 49.4701 6.36C50.2861 5.864 51.2141 5.624 52.2541 5.624C53.4221 5.624 54.4301 5.896 55.2621 6.44C56.0941 7 56.6861 7.768 57.0221 8.744H55.4221C55.1821 8.232 54.7981 7.816 54.2381 7.496C53.6781 7.176 53.0221 7.016 52.2541 7.016C51.5021 7.016 50.8461 7.192 50.2701 7.56C49.6941 7.928 49.2461 8.44 48.9101 9.096C48.5741 9.752 48.4141 10.536 48.4141 11.432C48.4141 12.328 48.5741 13.112 48.9101 13.768C49.2301 14.424 49.6781 14.936 50.2701 15.304C50.8461 15.672 51.5181 15.848 52.3021 15.848C52.9741 15.848 53.5661 15.704 54.0941 15.416C54.6061 15.144 55.0061 14.76 55.3101 14.264C55.5981 13.768 55.7421 13.208 55.7421 12.584V12.296H52.2541V10.936H57.2621V12.328C57.2621 13.272 57.0541 14.104 56.6381 14.84C56.2221 15.592 55.6461 16.168 54.8941 16.6C54.1421 17.032 53.2781 17.24 52.2701 17.24Z" fill="#BCBCBC"/>
</svg>
