<svg width="62" height="22" viewBox="0 0 62 22" fill="none" xmlns="http://www.w3.org/2000/svg">
<rect x="0.5" y="0.5" width="61" height="21" stroke="#BCBCBC"/>
<path d="M12.612 17H11.092V7.224H7.14V5.864H16.564V7.224H12.612V17ZM27.9071 5.864L23.4751 17H21.9231L17.4911 5.864H19.1391L22.7391 15.176L26.3071 5.864H27.9071ZM29.0933 13V11.736H34.2133V13H29.0933ZM40.3953 17V7.448L37.5633 8.408V7.032L41.8833 5.656V17H40.3953ZM51.4241 17V14.248H45.7921V13.112L51.5041 5.864H52.9121V12.952H54.6561V14.248H52.9121V17H51.4241ZM47.4241 12.952H51.4241V7.88L47.4241 12.952Z" fill="#BCBCBC"/>
</svg>
