<svg width="68" height="22" viewBox="0 0 68 22" fill="none" xmlns="http://www.w3.org/2000/svg">
<rect x="0.5" y="0.5" width="67" height="21" stroke="#BCBCBC"/>
<path d="M12.612 17H11.092V7.224H7.14V5.864H16.564V7.224H12.612V17ZM27.9071 5.864L23.4751 17H21.9231L17.4911 5.864H19.1391L22.7391 15.176L26.3071 5.864H27.9071ZM29.0933 13V11.736H34.2133V13H29.0933ZM38.4593 17H36.9713V5.864H38.6353L42.6673 12.344L46.6353 5.864H48.2993V17H46.7953V8.152L42.6353 14.92L38.4593 8.184V17ZM58.8544 17L57.6864 14.008H52.7424L51.5904 17H50.0224L54.4704 5.864H56.0064L60.4704 17H58.8544ZM53.2544 12.648H57.1584L55.2064 7.592L53.2544 12.648Z" fill="#BCBCBC"/>
</svg>
