<svg width="24" height="24" viewBox="0 0 24 24" fill="none" xmlns="http://www.w3.org/2000/svg">
<mask id="mask0_189_15127" style="mask-type:luminance" maskUnits="userSpaceOnUse" x="1" y="1" width="22" height="22">
<path d="M7.46718 1.13119C6.3026 1.18616 5.50716 1.37271 4.81207 1.64507C4.09253 1.92558 3.48259 2.30148 2.87583 2.91074C2.26837 3.52035 1.89529 4.13138 1.6169 4.85165C1.34739 5.54849 1.16476 6.3443 1.11331 7.50962C1.06226 8.67708 1.05055 9.04944 1.05624 12.0216C1.06191 14.9934 1.07503 15.3665 1.13069 16.5343C1.18636 17.6986 1.37221 18.4937 1.64457 19.1891C1.92543 19.9086 2.30096 20.5183 2.91057 21.1254C3.51983 21.7325 4.13119 22.1052 4.8518 22.384C5.54792 22.6531 6.34408 22.8365 7.50903 22.8876C8.67645 22.939 9.04916 22.9503 12.0206 22.9447C14.9935 22.939 15.3662 22.9258 16.5336 22.8705C17.6982 22.8149 18.4929 22.6283 19.1887 22.3567C19.9082 22.0751 20.5182 21.7003 21.1249 21.0906C21.7317 20.4814 22.1048 19.87 22.3832 19.1494C22.6527 18.4532 22.836 17.6571 22.8867 16.4928C22.9378 15.3247 22.9499 14.9516 22.9442 11.9798C22.9385 9.00761 22.9251 8.63525 22.8697 7.46813C22.8144 6.30284 22.6279 5.5081 22.3559 4.81231C22.0746 4.09277 21.6995 3.48351 21.0902 2.87602C20.481 2.26924 19.8696 1.89546 19.149 1.61778C18.4525 1.34826 17.6567 1.16456 16.4917 1.11421C15.3243 1.06241 14.9516 1.05107 11.9791 1.05674C9.00733 1.06244 8.63464 1.0752 7.46718 1.13122M7.59486 20.9176C6.52779 20.8711 5.94832 20.6938 5.56213 20.5452C5.05077 20.3473 4.68585 20.1101 4.30178 19.7289C3.91843 19.3462 3.68048 18.9823 3.48082 18.472C3.3308 18.0858 3.15032 17.5071 3.10032 16.44C3.04603 15.2864 3.03364 14.9403 3.0283 12.0177C3.02265 9.09592 3.03327 8.74978 3.08364 7.5951C3.12939 6.52872 3.30777 5.94856 3.456 5.56272C3.65389 5.05061 3.89039 4.68642 4.27234 4.30235C4.65498 3.91828 5.01883 3.68103 5.52951 3.48138C5.91533 3.33065 6.4941 3.15156 7.5608 3.10086C8.71513 3.04624 9.06087 3.03453 11.9826 3.02886C14.9051 3.02317 15.2513 3.03346 16.4059 3.08418C17.4723 3.13063 18.0525 3.30725 18.438 3.45654C18.9497 3.65443 19.3146 3.89026 19.6983 4.2729C20.082 4.65555 20.3199 5.01871 20.5196 5.53043C20.6703 5.9152 20.8494 6.49468 20.8998 7.56106C20.9547 8.71539 20.9671 9.0615 20.9724 11.9833C20.9781 14.9058 20.9675 15.252 20.9168 16.4059C20.8703 17.473 20.6934 18.0529 20.5444 18.4394C20.3465 18.9504 20.11 19.3153 19.7277 19.6994C19.3454 20.0821 18.9816 20.3207 18.4706 20.5204C18.0854 20.6707 17.506 20.8502 16.44 20.9009C15.2857 20.9552 14.9399 20.9676 12.0171 20.9729C9.09528 20.9786 8.74952 20.9676 7.59486 20.9176ZM16.5176 6.15C16.519 6.87486 17.1084 7.46176 17.8333 7.46036C18.5585 7.45894 19.1454 6.86989 19.1444 6.145C19.1429 5.42014 18.5535 4.83289 17.8283 4.83431C17.1031 4.83571 16.5162 5.42511 16.5176 6.14997M6.38027 12.0113C6.38629 15.1154 8.90733 17.6262 12.0107 17.6202C15.1144 17.6141 17.6266 15.0938 17.6205 11.9897C17.6145 8.88666 15.0931 6.37444 11.989 6.38046C8.88568 6.3865 6.37422 8.90794 6.38027 12.0113ZM8.35162 12.0074C8.34807 9.99275 9.97866 8.35612 11.9929 8.35258C14.0076 8.34868 15.6445 9.97856 15.6484 11.9936C15.6524 14.0086 14.0218 15.6449 12.0068 15.6488C9.99249 15.6527 8.35552 14.0224 8.35162 12.0074Z" fill="white"/>
</mask>
<g mask="url(#mask0_189_15127)">
<rect x="0.0546875" y="0.0856934" width="23.873" height="23.873" fill="white"/>
</g>
</svg>
