<svg width="24" height="24" viewBox="0 0 24 24" fill="none" xmlns="http://www.w3.org/2000/svg">
<path d="M2.68401 23C2.43999 23.0008 2.19873 22.9485 1.97695 22.8467C1.75516 22.7449 1.55818 22.5961 1.39966 22.4106C1.24113 22.2251 1.12487 22.0073 1.05893 21.7724C0.992984 21.5374 0.978943 21.291 1.01778 21.0501L1.72503 16.5828C1.77844 16.2311 1.94379 15.9061 2.19653 15.6558L16.1018 1.75054C16.5847 1.26986 17.2384 1 17.9198 1C18.6013 1 19.2549 1.26986 19.7379 1.75054L22.2473 4.25988C22.7279 4.74285 22.9978 5.39654 22.9978 6.07795C22.9978 6.75936 22.7279 7.41305 22.2473 7.89602L8.34201 21.8013C8.09173 22.054 7.76665 22.2193 7.41499 22.2728L2.94773 22.98C2.86038 22.9926 2.77227 22.9993 2.68401 23ZM17.9198 2.59764C17.7916 2.59715 17.6646 2.62196 17.546 2.67064C17.4273 2.71932 17.3195 2.79092 17.2286 2.88134L3.32733 16.7946C3.32029 16.8005 3.31453 16.8078 3.31041 16.8161C3.30629 16.8243 3.30389 16.8333 3.30335 16.8425L2.5961 21.3018C2.59408 21.3154 2.59527 21.3292 2.59957 21.3423C2.60388 21.3553 2.61118 21.3672 2.62089 21.3769C2.6306 21.3866 2.64246 21.3939 2.6555 21.3982C2.66854 21.4025 2.68241 21.4037 2.696 21.4017L7.16326 20.6944C7.17899 20.6914 7.19314 20.6829 7.20321 20.6705L21.1085 6.76922C21.2912 6.58639 21.3939 6.33846 21.3939 6.07995C21.3939 5.82144 21.2912 5.57351 21.1085 5.39068L18.6071 2.88134C18.5171 2.79087 18.41 2.71919 18.292 2.67049C18.174 2.62178 18.0475 2.59702 17.9198 2.59764Z" fill="#B3B3B3"/>
<path d="M19.412 10.2636C19.3128 10.2642 19.2144 10.2452 19.1226 10.2077C19.0308 10.1703 18.9473 10.1151 18.8768 10.0453L14.1474 5.32205C14.006 5.18081 13.9265 4.98925 13.9265 4.78951C13.9265 4.58976 14.006 4.3982 14.1474 4.25696C14.2888 4.11572 14.4806 4.03638 14.6806 4.03638C14.8806 4.03638 15.0724 4.11572 15.2139 4.25696L19.9433 8.98022C20.0134 9.05012 20.069 9.13314 20.1069 9.22452C20.1449 9.31589 20.1644 9.41384 20.1644 9.51276C20.1644 9.61168 20.1449 9.70962 20.1069 9.801C20.069 9.89238 20.0134 9.9754 19.9433 10.0453C19.802 10.1853 19.611 10.2637 19.412 10.2636ZM7.11623 22.2456C6.9172 22.2457 6.89867 22.2926 6.75736 22.1526L2.02413 17.4256C1.89447 17.2822 1.82499 17.0945 1.8301 16.9013C1.8352 16.7082 1.91448 16.5244 2.05153 16.388C2.18858 16.2516 2.3729 16.1731 2.56633 16.1687C2.75975 16.1643 2.94747 16.2343 3.09061 16.3643L7.82384 21.0876C7.92884 21.193 8.00019 21.3272 8.02889 21.4732C8.05759 21.6191 8.04235 21.7703 7.9851 21.9076C7.92785 22.0449 7.81809 22.0702 7.69415 22.1526C7.57021 22.2351 7.26516 22.2457 7.11623 22.2456Z" fill="#B3B3B3"/>
<path d="M3.36513 21.4534C3.20176 21.4552 2.97594 21.7881 2.83946 21.6984C2.70297 21.6086 2.59639 21.4801 2.53337 21.3293C2.47034 21.1786 2.51938 20.6325 2.55132 20.4723C2.58326 20.3121 2.6623 20.1651 2.7783 20.05L15.9881 6.85741C16.06 6.76683 16.1503 6.69248 16.253 6.63924C16.3557 6.586 16.4684 6.55506 16.5839 6.54846C16.6994 6.54186 16.815 6.55974 16.9231 6.60093C17.0312 6.64213 17.1293 6.70571 17.2111 6.78749C17.2929 6.86928 17.3565 6.96744 17.3977 7.07552C17.4389 7.1836 17.4568 7.29917 17.4502 7.41465C17.4436 7.53013 17.4126 7.64291 17.3594 7.74559C17.3061 7.84828 17.2318 7.93855 17.1412 8.01048L3.94785 21.2195C3.7923 21.3716 3.5827 21.4558 3.36513 21.4534Z" fill="#B3B3B3"/>
</svg>
