<svg width="24" height="24" viewBox="0 0 24 24" fill="none" xmlns="http://www.w3.org/2000/svg">
<circle cx="11.883" cy="5.65352" r="3.80743" stroke="#B3B3B3" stroke-width="1.69219"/>
<path d="M11.8826 11.9988C16.467 11.9988 19.9207 14.9295 19.9207 18.7683C19.9206 19.7702 19.7197 20.4059 19.4343 20.8269C19.1549 21.2391 18.7334 21.5365 18.1082 21.7458C17.4676 21.9602 16.6546 22.0684 15.657 22.1169C14.6605 22.1654 13.5483 22.1521 12.3054 22.1521C9.78423 22.1521 7.61621 22.1954 6.05054 21.7361C5.29541 21.5145 4.76646 21.1967 4.42065 20.7693C4.08153 20.35 3.84455 19.734 3.84448 18.7683C3.84448 14.9295 7.29822 11.9989 11.8826 11.9988Z" stroke="#B3B3B3" stroke-width="1.69219"/>
</svg>
