<svg width="24" height="24" viewBox="0 0 24 24" fill="none" xmlns="http://www.w3.org/2000/svg">
<path fill-rule="evenodd" clip-rule="evenodd" d="M13.0176 17.6236V15.0045C13.0176 14.8278 13.0535 14.6489 13.1268 14.4828C14.2902 11.8474 16.0061 10.5553 17.6522 10.2612C17.6925 10.2541 17.7252 10.2336 17.7434 10.2139C17.7516 10.205 17.7546 10.1987 17.7553 10.1969L17.7556 5.96661C17.7556 5.96661 17.7541 5.96464 17.7525 5.96314C17.7459 5.95694 17.7363 5.95299 17.7251 5.95367C16.3769 6.03523 15.5025 5.8908 14.8323 5.66273C14.5026 5.5505 14.2357 5.42241 14.0112 5.3119C13.9915 5.30223 13.9724 5.29278 13.9537 5.28356C13.7505 5.18339 13.5991 5.1087 13.4369 5.05121C13.3455 5.01884 13.0701 4.97823 12.5904 4.95628C12.1412 4.93574 11.586 4.93346 10.9936 4.94318C9.81009 4.96258 8.50834 5.02925 7.67204 5.08483L7.65197 5.08616H7.63187C7.53987 5.08616 7.48225 5.0978 7.44945 5.1082C7.41858 5.11798 7.40787 5.12712 7.40627 5.12848C7.4046 5.1299 7.40005 5.13383 7.39309 5.14723C7.38523 5.16233 7.37407 5.19026 7.36474 5.23677C7.31873 5.46593 7.36864 5.79909 7.4393 6.19236C7.51663 6.62273 7.29862 6.99699 7.00898 7.18895C6.50431 7.5234 6.49124 7.92839 6.53565 8.06515C6.61781 8.31812 6.64711 8.69355 6.43379 9.02824C6.2233 9.35849 6.22936 9.57004 6.26108 9.70034C6.29971 9.85906 6.40732 10.016 6.56059 10.166C6.90564 10.5038 6.94636 11.0197 6.74503 11.4049C6.65954 11.5685 6.65989 11.6749 6.67237 11.7421C6.68683 11.8201 6.73066 11.9095 6.8158 12.0049C6.90142 12.1009 7.01079 12.182 7.11192 12.2377C7.1595 12.2638 7.19805 12.2804 7.22294 12.2893L10.6459 12.2893V14.5268C10.6459 16.4929 11.0995 17.2221 11.4725 17.4964C11.8561 17.7785 12.3901 17.7641 13.0176 17.6236ZM10.7482 18.5361C9.87203 17.8918 9.40151 16.6148 9.40151 14.5268V13.5678L7.17787 13.5678C7.04228 13.5678 6.91585 13.5322 6.82858 13.5019C6.7297 13.4677 6.62637 13.4209 6.52441 13.3647C6.32234 13.2536 6.0947 13.0888 5.89838 12.8688C5.70156 12.6481 5.51849 12.3512 5.44992 11.9815C5.38869 11.6513 5.4267 11.3043 5.57383 10.9581C5.36942 10.7312 5.15251 10.416 5.05382 10.0105C4.93342 9.51588 5.00941 8.97301 5.33868 8.41579C5.13322 7.69954 5.40879 6.81701 6.18009 6.22467C6.12248 5.88593 6.06001 5.40661 6.14595 4.9785C6.20262 4.69621 6.33265 4.38234 6.61169 4.1445C6.88666 3.91012 7.23376 3.81135 7.61024 3.80772C8.46098 3.75147 9.77335 3.68448 10.9737 3.66479C11.5776 3.65489 12.1608 3.65682 12.6457 3.67901C13.1002 3.69979 13.5546 3.74044 13.8427 3.84257C14.0771 3.92563 14.2941 4.03295 14.4857 4.12767C14.5071 4.13824 14.5281 4.14865 14.5488 4.15885C14.7637 4.2646 14.9721 4.36344 15.2236 4.44903C15.716 4.6166 16.4284 4.75136 17.6519 4.67734C18.3561 4.63473 19 5.19748 19 5.96618V10.1962C19 10.923 18.4373 11.4187 17.8654 11.5209C16.7155 11.7263 15.2968 12.6654 14.262 15.0066V17.6302C14.262 18.2028 13.8861 18.7355 13.307 18.8673C12.6426 19.0185 11.6097 19.1696 10.7482 18.5361Z" fill="white"/>
</svg>
