<svg width="24" height="24" viewBox="0 0 24 24" fill="none" xmlns="http://www.w3.org/2000/svg">
<path d="M7.91857 20.8761C16.2205 20.8761 20.7613 13.9981 20.7613 8.0334C20.7613 7.83807 20.7613 7.64359 20.7481 7.44997C21.6314 6.81098 22.394 6.01989 23 5.11359C22.1762 5.47861 21.3023 5.71795 20.4075 5.82373C21.3496 5.25981 22.0551 4.37216 22.3919 3.32716C21.5059 3.85289 20.5365 4.22345 19.5258 4.42278C18.6723 3.51524 17.4804 3 16.2347 3C13.7561 3 11.7167 5.03947 11.7167 7.51791C11.7167 7.86174 11.756 8.2045 11.8337 8.5394C8.20633 8.3576 4.82203 6.64186 2.53119 3.8235C1.33993 5.87422 1.95631 8.53184 3.92862 9.84883C3.2104 9.82756 2.5076 9.63377 1.88 9.28388V9.34107C1.8806 11.4815 3.40311 13.3419 5.50119 13.7657C4.83672 13.9469 4.13938 13.9734 3.46314 13.8432C4.05297 15.6773 5.75385 16.9416 7.68009 16.9777C6.08209 18.2336 4.10694 18.9158 2.07448 18.9137C1.71534 18.913 1.35655 18.8913 1 18.8486C3.06396 20.1731 5.46617 20.8759 7.91857 20.8726" fill="white"/>
</svg>
