<svg width="24" height="24" viewBox="0 0 24 24" fill="none" xmlns="http://www.w3.org/2000/svg">
<circle cx="12" cy="12" r="9.23077" stroke="white" stroke-width="1.53846"/>
<path d="M12.4638 9.66775C12.2054 9.66775 11.9715 9.56929 11.7869 9.38467C11.59 9.20006 11.4915 8.96621 11.4915 8.69544C11.4915 8.42467 11.59 8.19083 11.7869 8.00621C11.9715 7.82159 12.2054 7.72313 12.4638 7.72313C12.7223 7.72313 12.9562 7.82159 13.1531 8.00621C13.3377 8.19083 13.4362 8.42467 13.4362 8.69544C13.4362 8.96621 13.3377 9.20006 13.1531 9.38467C12.9562 9.56929 12.7223 9.66775 12.4638 9.66775ZM11.6762 16.7693V10.4062H13.2392V16.7693H11.6762Z" fill="white"/>
</svg>
