<svg width="24" height="24" viewBox="0 0 24 24" fill="none" xmlns="http://www.w3.org/2000/svg">
<path d="M12.5096 5.48418C12.8501 5.48418 13.6592 5.69952 13.6592 5.69952C15.851 6.20178 17.3937 8.22063 17.3937 10.5V16.6352L17.8418 17.0854L18.2163 17.4615H6.70683L7.08125 17.0854L7.52937 16.6352V10.5C7.52937 8.22067 9.07212 6.20178 11.2639 5.69952C11.2639 5.69952 12.1313 5.48418 12.4135 5.48418M12.4615 2C11.6153 2 10.9683 2.6499 10.9683 3.5V4.19995C8.13106 4.8501 5.99091 7.45 5.99091 10.5V16L4 18V19H20.9231V18L18.9322 16V10.5C18.9322 7.45 16.792 4.8501 13.9548 4.19995V3.5C13.9548 2.6499 13.3078 2 12.4615 2ZM14.4525 20H10.4706C10.4706 21.1 11.3664 22 12.4615 22C13.5567 22 14.4525 21.1 14.4525 20Z" fill="white"/>
</svg>
