<svg width="24" height="24" viewBox="0 0 24 24" fill="none" xmlns="http://www.w3.org/2000/svg">
<path d="M22.5395 6.40255C22.2865 5.45595 21.5411 4.71057 20.5945 4.45761C18.8787 3.9978 11.9992 3.9978 11.9992 3.9978C11.9992 3.9978 5.11967 3.9978 3.4038 4.45761C2.45741 4.71057 1.71186 5.45595 1.45886 6.40255C0.999268 8.11821 0.999268 11.6978 0.999268 11.6978C0.999268 11.6978 0.999268 15.2775 1.45886 16.993C1.71186 17.9396 2.45741 18.6851 3.4038 18.9381C5.11967 19.3977 11.9992 19.3977 11.9992 19.3977C11.9992 19.3977 18.8787 19.3977 20.5945 18.9381C21.5411 18.6851 22.2865 17.9396 22.5395 16.993C22.9993 15.2775 22.9993 11.6978 22.9993 11.6978C22.9993 11.6978 22.9993 8.11821 22.5395 6.40255Z" fill="white"/>
<path d="M9.79956 14.9983L15.5152 11.6982L9.79956 8.39819V14.9983Z" fill="black"/>
</svg>
