<svg width="24" height="24" viewBox="0 0 24 24" fill="none" xmlns="http://www.w3.org/2000/svg">
<path fill-rule="evenodd" clip-rule="evenodd" d="M10.9824 5.3764V7.99548C10.9824 8.1722 10.9465 8.35111 10.8732 8.51722C9.70982 11.1526 7.99393 12.4447 6.34778 12.7388C6.30752 12.7459 6.27483 12.7664 6.25665 12.7861C6.24843 12.795 6.24544 12.8013 6.24469 12.8031L6.24444 17.0334C6.24444 17.0334 6.24591 17.0354 6.24752 17.0369C6.25414 17.0431 6.2637 17.047 6.27494 17.0463C7.62308 16.9648 8.49747 17.1092 9.16766 17.3373C9.49744 17.4495 9.76431 17.5776 9.98882 17.6881C10.0085 17.6978 10.0276 17.7072 10.0463 17.7164C10.2495 17.8166 10.4009 17.8913 10.5631 17.9488C10.6545 17.9812 10.9299 18.0218 11.4096 18.0437C11.8588 18.0643 12.414 18.0665 13.0064 18.0568C14.1899 18.0374 15.4917 17.9708 16.328 17.9152L16.348 17.9138H16.3681C16.4601 17.9138 16.5177 17.9022 16.5505 17.8918C16.5814 17.882 16.5921 17.8729 16.5937 17.8715C16.5954 17.8701 16.6 17.8662 16.6069 17.8528C16.6148 17.8377 16.6259 17.8097 16.6353 17.7632C16.6813 17.5341 16.6314 17.2009 16.5607 16.8076C16.4834 16.3773 16.7014 16.003 16.991 15.8111C17.4957 15.4766 17.5088 15.0716 17.4643 14.9348C17.3822 14.6819 17.3529 14.3064 17.5662 13.9718C17.7767 13.6415 17.7706 13.43 17.7389 13.2997C17.7003 13.1409 17.5927 12.984 17.4394 12.834C17.0944 12.4962 17.0536 11.9803 17.255 11.5951C17.3405 11.4315 17.3401 11.3251 17.3276 11.2579C17.3132 11.1799 17.2693 11.0905 17.1842 10.9951C17.0986 10.8991 16.9892 10.818 16.8881 10.7623C16.8405 10.7362 16.8019 10.7196 16.7771 10.7107H13.3541V8.47324C13.3541 6.50714 12.9005 5.7779 12.5275 5.50357C12.1439 5.2215 11.6099 5.23586 10.9824 5.3764ZM13.2518 4.46391C14.128 5.10823 14.5985 6.38517 14.5985 8.47324V9.4322H16.8221C16.9577 9.4322 17.0842 9.46785 17.1714 9.49807C17.2703 9.53232 17.3736 9.57915 17.4756 9.63525C17.6777 9.74644 17.9053 9.91116 18.1016 10.1312C18.2984 10.3519 18.4815 10.6488 18.5501 11.0185C18.6113 11.3487 18.5733 11.6957 18.4262 12.0419C18.6306 12.2688 18.8475 12.584 18.9462 12.9895C19.0666 13.4841 18.9906 14.027 18.6613 14.5842C18.8668 15.3005 18.5912 16.183 17.8199 16.7753C17.8775 17.1141 17.94 17.5934 17.854 18.0215C17.7974 18.3038 17.6674 18.6177 17.3883 18.8555C17.1133 19.0899 16.7662 19.1887 16.3898 19.1923C15.539 19.2485 14.2266 19.3155 13.0263 19.3352C12.4224 19.3451 11.8392 19.3432 11.3543 19.321C10.8998 19.3002 10.4454 19.2596 10.1573 19.1574C9.92295 19.0744 9.70589 18.9671 9.51431 18.8723C9.49294 18.8618 9.47188 18.8514 9.45115 18.8411C9.2363 18.7354 9.0279 18.6366 8.77637 18.551C8.28396 18.3834 7.57164 18.2486 6.34809 18.3227C5.64387 18.3653 5 17.8025 5 17.0338V12.8038C5 12.077 5.56273 11.5813 6.13462 11.4791C7.28446 11.2737 8.70324 10.3346 9.73799 7.99345V5.36979C9.73799 4.79719 10.1139 4.26446 10.693 4.13269C11.3574 3.98152 12.3903 3.83038 13.2518 4.46391Z" fill="white"/>
</svg>
