<svg width="24" height="24" viewBox="0 0 24 24" fill="none" xmlns="http://www.w3.org/2000/svg">
<circle cx="11.998" cy="12" r="10.12" stroke="#B3B3B3" stroke-width="1.76"/>
<path d="M10.7005 13.8643V13.5501C10.7005 12.9966 10.8052 12.5179 11.0146 12.1439C11.2091 11.7699 11.613 11.3959 12.2114 11.0518C12.7201 10.7526 13.0492 10.5133 13.2138 10.3188C13.3634 10.1393 13.4382 9.94479 13.4382 9.72039C13.4382 9.46607 13.3185 9.24167 13.0642 9.04719C12.8098 8.86767 12.4807 8.77791 12.0618 8.77791C11.628 8.77791 11.269 8.86767 10.9997 9.06215C10.7304 9.25663 10.5658 9.49599 10.491 9.78023H8.21712C8.29192 9.19679 8.50136 8.65823 8.84544 8.19447C9.18952 7.73071 9.63832 7.35671 10.2068 7.07247C10.7753 6.80319 11.4485 6.66855 12.2114 6.66855C12.9146 6.66855 13.5429 6.78823 14.0964 7.04255C14.6499 7.29687 15.0688 7.65591 15.383 8.10471C15.6971 8.56847 15.8467 9.09207 15.8467 9.70543C15.8467 10.2589 15.6971 10.7377 15.3979 11.1416C15.0987 11.5455 14.6499 11.9195 14.0665 12.2636C13.6027 12.5478 13.2886 12.7872 13.1539 12.9966C13.0193 13.221 12.9445 13.4454 12.9445 13.6698V13.8643H10.7005ZM11.9272 17.5445C11.5382 17.5445 11.2091 17.4098 10.9249 17.1256C10.6406 16.8413 10.506 16.5122 10.506 16.1083C10.506 15.7044 10.6406 15.3753 10.9249 15.091C11.2091 14.8068 11.5382 14.6721 11.9272 14.6721C12.3311 14.6721 12.6602 14.8068 12.9445 15.091C13.2287 15.3753 13.3634 15.7044 13.3634 16.1083C13.3634 16.5122 13.2287 16.8413 12.9445 17.1256C12.6602 17.4098 12.3311 17.5445 11.9272 17.5445Z" fill="#B3B3B3"/>
</svg>
