<svg width="52" height="52" viewBox="0 0 52 52" fill="none" xmlns="http://www.w3.org/2000/svg">
<path d="M19.2684 35.8091V26.152L16.4545 27.0331V25.0118L21.5058 23.5607V35.8091H19.2684Z" fill="white"/>
<path d="M30.0202 36.0682C29.071 36.0682 28.2404 35.8148 27.5285 35.3081C26.8166 34.7898 26.2628 34.0642 25.8673 33.1314C25.4831 32.187 25.291 31.0756 25.291 29.7972C25.291 28.5303 25.4831 27.4246 25.8673 26.4802C26.2628 25.5358 26.8166 24.8103 27.5285 24.3035C28.2404 23.7852 29.071 23.5261 30.0202 23.5261C30.9695 23.5261 31.8 23.7852 32.512 24.3035C33.2239 24.8103 33.772 25.5358 34.1562 26.4802C34.5517 27.4246 34.7495 28.5303 34.7495 29.7972C34.7495 31.0756 34.5517 32.187 34.1562 33.1314C33.772 34.0642 33.2239 34.7898 32.512 35.3081C31.8 35.8148 30.9695 36.0682 30.0202 36.0682ZM30.0202 34.0297C30.7661 34.0297 31.3593 33.6554 31.8 32.9068C32.2521 32.1582 32.4781 31.1216 32.4781 29.7972C32.4781 28.4727 32.2521 27.4362 31.8 26.6876C31.3593 25.9389 30.7661 25.5646 30.0202 25.5646C29.2744 25.5646 28.6755 25.9389 28.2235 26.6876C27.7827 27.4362 27.5624 28.4727 27.5624 29.7972C27.5624 31.1216 27.7827 32.1582 28.2235 32.9068C28.6755 33.6554 29.2744 34.0297 30.0202 34.0297Z" fill="white"/>
<path fill-rule="evenodd" clip-rule="evenodd" d="M20.6329 4.7734L24.4311 9.11171C22.8532 9.37378 21.176 9.78842 19.5583 10.3366C17.0308 11.1932 14.5286 12.4161 12.7709 13.996C9.40763 17.0191 7.13885 21.1065 6.32892 25.6018C5.51899 30.0971 6.21493 34.7394 8.30495 38.7831C10.395 42.8268 13.7578 46.0373 17.8534 47.899C21.949 49.7607 26.5396 50.1655 30.8881 49.0485C35.2365 47.9315 39.0905 45.3574 41.831 41.7397C44.5715 38.1219 46.0395 33.6705 45.9992 29.1002C45.9927 28.3647 45.4024 27.7738 44.6807 27.7804C43.959 27.787 43.3793 28.3886 43.3857 29.1241C43.4207 33.0972 42.1446 36.9669 39.7622 40.1119C37.3799 43.2568 34.0295 45.4945 30.2493 46.4656C26.4691 47.4367 22.4783 47.0847 18.918 45.4663C15.3576 43.8479 12.4342 41.057 10.6173 37.5417C8.8004 34.0264 8.19541 29.9907 8.8995 26.0829C9.60359 22.175 11.5759 18.6217 14.4997 15.9937C15.8855 14.7479 18.0167 13.6661 20.383 12.8642C21.5273 12.4764 22.6985 12.1636 23.8259 11.9316L20.6343 15.6642L22.6046 17.4142L28.0722 11.0199C28.5048 10.514 28.5004 9.75898 28.062 9.25822L22.583 3L20.6329 4.7734ZM28.2469 4.67737L32.5343 10.11L28.2404 15.1221L30.2091 16.874L35.2234 11.021C35.6401 10.5346 35.6544 9.81352 35.2573 9.31033L30.2835 3.00794L28.2469 4.67737Z" fill="white"/>
</svg>
