<svg width="52" height="52" viewBox="0 0 52 52" fill="none" xmlns="http://www.w3.org/2000/svg">
<path d="M27.2305 10.1595C26.9155 10.0232 26.57 9.97293 26.2292 10.0138C25.8884 10.0547 25.5646 10.1853 25.2908 10.3922L16.0193 17.7241H8.93964C8.42522 17.7241 7.93186 17.9284 7.56811 18.2922C7.20435 18.6559 7 19.1493 7 19.6637V31.3015C7 31.816 7.20435 32.3093 7.56811 32.6731C7.93186 33.0368 8.42522 33.2412 8.93964 33.2412H16.0193L25.1938 40.573C25.5351 40.8468 25.9589 40.9972 26.3964 40.9998C26.6861 41.0045 26.9726 40.9379 27.2305 40.8058C27.5605 40.6486 27.8395 40.4013 28.0351 40.0924C28.2307 39.7836 28.335 39.4257 28.3361 39.0601V11.9051C28.335 11.5395 28.2307 11.1817 28.0351 10.8728C27.8395 10.564 27.5605 10.3167 27.2305 10.1595ZM24.4568 35.0257L17.9008 29.7886C17.5595 29.5148 17.1357 29.3644 16.6982 29.3619H10.8793V21.6033H16.6982C17.1357 21.6008 17.5595 21.4504 17.9008 21.1766L24.4568 15.9396V35.0257ZM41.739 25.4826L45.2303 22.0107C45.4112 21.8298 45.5546 21.6151 45.6525 21.3788C45.7504 21.1425 45.8008 20.8893 45.8008 20.6335C45.8008 20.3778 45.7504 20.1245 45.6525 19.8882C45.5546 19.6519 45.4112 19.4372 45.2303 19.2564C45.0495 19.0755 44.8348 18.9321 44.5985 18.8342C44.3622 18.7363 44.109 18.6859 43.8532 18.6859C43.5974 18.6859 43.3442 18.7363 43.1079 18.8342C42.8716 18.9321 42.6569 19.0755 42.4761 19.2564L39.0041 22.7477L35.5321 19.2564C35.1669 18.8911 34.6715 18.6859 34.155 18.6859C33.6385 18.6859 33.1431 18.8911 32.7778 19.2564C32.4126 19.6216 32.2074 20.117 32.2074 20.6335C32.2074 21.1501 32.4126 21.6454 32.7778 22.0107L36.2692 25.4826L32.7778 28.9546C32.596 29.1349 32.4517 29.3494 32.3533 29.5858C32.2548 29.8222 32.2041 30.0757 32.2041 30.3317C32.2041 30.5878 32.2548 30.8413 32.3533 31.0777C32.4517 31.314 32.596 31.5286 32.7778 31.7089C32.9582 31.8907 33.1727 32.035 33.409 32.1334C33.6454 32.2319 33.8989 32.2826 34.155 32.2826C34.411 32.2826 34.6646 32.2319 34.9009 32.1334C35.1373 32.035 35.3518 31.8907 35.5321 31.7089L39.0041 28.2175L42.4761 31.7089C42.6564 31.8907 42.8709 32.035 43.1073 32.1334C43.3436 32.2319 43.5971 32.2826 43.8532 32.2826C44.1093 32.2826 44.3628 32.2319 44.5991 32.1334C44.8355 32.035 45.05 31.8907 45.2303 31.7089C45.4121 31.5286 45.5564 31.314 45.6549 31.0777C45.7534 30.8413 45.8041 30.5878 45.8041 30.3317C45.8041 30.0757 45.7534 29.8222 45.6549 29.5858C45.5564 29.3494 45.4121 29.1349 45.2303 28.9546L41.739 25.4826Z" fill="white"/>
</svg>
