<svg width="52" height="52" viewBox="0 0 52 52" fill="none" xmlns="http://www.w3.org/2000/svg">
<path d="M25.2292 10.3911C24.9142 10.2549 24.5687 10.2046 24.228 10.2455C23.8872 10.2864 23.5634 10.417 23.2896 10.6239L14.0187 17.9552H6.93952C6.42512 17.9552 5.9318 18.1596 5.56807 18.5233C5.20434 18.887 5 19.3804 5 19.8948V31.5319C5 32.0462 5.20434 32.5396 5.56807 32.9033C5.9318 33.267 6.42512 33.4714 6.93952 33.4714H14.0187L23.1927 40.8027C23.5339 41.0765 23.9577 41.2269 24.3952 41.2294C24.6849 41.2342 24.9713 41.1676 25.2292 41.0355C25.5592 40.8783 25.8381 40.631 26.0337 40.3222C26.2293 40.0133 26.3336 39.6555 26.3347 39.2899V12.1367C26.3336 11.7711 26.2293 11.4133 26.0337 11.1044C25.8381 10.7956 25.5592 10.5483 25.2292 10.3911ZM22.4556 35.2557L15.9001 30.019C15.5588 29.7453 15.1351 29.5949 14.6976 29.5923H8.87903V21.8343H14.6976C15.1351 21.8317 15.5588 21.6814 15.9001 21.4076L22.4556 16.1709V35.2557Z" fill="white"/>
<path d="M30.4677 41.1884C30.4677 41.7819 30.9495 42.2666 31.5417 42.2281C35.5342 41.9684 39.3115 40.2671 42.1578 37.4208C45.2582 34.3204 47 30.1154 47 25.7307C47 21.3461 45.2582 17.1411 42.1578 14.0407C39.3115 11.1944 35.5342 9.49313 31.5417 9.23338C30.9495 9.19485 30.4677 9.6796 30.4677 10.2731C30.4677 10.8666 30.9495 11.3435 31.5414 11.3878C34.9634 11.6438 38.195 13.1172 40.6381 15.5604C43.3355 18.2577 44.8508 21.9161 44.8508 25.7307C44.8508 29.5454 43.3355 33.2038 40.6381 35.9011C38.195 38.3443 34.9634 39.8177 31.5414 40.0737C30.9495 40.118 30.4677 40.5949 30.4677 41.1884Z" fill="white"/>
<path d="M30.4663 32.9631C30.4663 33.5338 30.9307 34.003 31.4969 33.9319C33.3092 33.7042 35.0061 32.8805 36.3113 31.5753C37.8615 30.0251 38.7324 27.9226 38.7324 25.7302C38.7324 23.5379 37.8615 21.4354 36.3113 19.8852C35.0061 18.5799 33.3092 17.7563 31.4969 17.5286C30.9307 17.4574 30.4663 17.9267 30.4663 18.4974C30.4663 19.068 30.9321 19.5219 31.4948 19.6165C32.7575 19.829 33.9327 20.4291 34.8501 21.3465C36.0127 22.5091 36.6659 24.086 36.6659 25.7302C36.6659 27.3745 36.0127 28.9514 34.8501 30.114C33.9327 31.0314 32.7575 31.6315 31.4948 31.844C30.9321 31.9386 30.4663 32.3924 30.4663 32.9631Z" fill="white"/>
<path d="M30.468 37.0777C30.468 37.6598 30.9408 38.1363 31.5208 38.0869C34.4235 37.8397 37.1597 36.5759 39.2355 34.5C41.5608 32.1747 42.8672 29.0209 42.8672 25.7324C42.8672 22.444 41.5608 19.2902 39.2355 16.9649C37.1597 14.889 34.4235 13.6252 31.5208 13.378C30.9408 13.3286 30.468 13.8051 30.468 14.3872C30.468 14.9693 30.9411 15.4355 31.5201 15.495C33.863 15.7357 36.0647 16.775 37.7451 18.4554C39.6751 20.3854 40.7593 23.003 40.7593 25.7324C40.7593 28.4619 39.6751 31.0795 37.7451 33.0095C36.0647 34.6899 33.863 35.7292 31.5201 35.9699C30.9411 36.0294 30.468 36.4956 30.468 37.0777Z" fill="white"/>
</svg>
