<svg width="52" height="52" viewBox="0 0 52 52" fill="none" xmlns="http://www.w3.org/2000/svg">
<path d="M20.0644 35.8091V26.152L17.2505 27.0331V25.0118L22.3018 23.5607V35.8091H20.0644Z" fill="white"/>
<path d="M30.8162 36.0682C29.867 36.0682 29.0364 35.8148 28.3245 35.3081C27.6126 34.7898 27.0588 34.0642 26.6633 33.1314C26.2791 32.187 26.087 31.0756 26.087 29.7972C26.087 28.5303 26.2791 27.4246 26.6633 26.4802C27.0588 25.5358 27.6126 24.8103 28.3245 24.3035C29.0364 23.7852 29.867 23.5261 30.8162 23.5261C31.7655 23.5261 32.596 23.7852 33.308 24.3035C34.0199 24.8103 34.568 25.5358 34.9522 26.4802C35.3477 27.4246 35.5455 28.5303 35.5455 29.7972C35.5455 31.0756 35.3477 32.187 34.9522 33.1314C34.568 34.0642 34.0199 34.7898 33.308 35.3081C32.596 35.8148 31.7655 36.0682 30.8162 36.0682ZM30.8162 34.0297C31.5621 34.0297 32.1553 33.6554 32.596 32.9068C33.0481 32.1582 33.2741 31.1216 33.2741 29.7972C33.2741 28.4727 33.0481 27.4362 32.596 26.6876C32.1553 25.9389 31.5621 25.5646 30.8162 25.5646C30.0704 25.5646 29.4715 25.9389 29.0195 26.6876C28.5787 27.4362 28.3584 28.4727 28.3584 29.7972C28.3584 31.1216 28.5787 32.1582 29.0195 32.9068C29.4715 33.6554 30.0704 34.0297 30.8162 34.0297Z" fill="white"/>
<path fill-rule="evenodd" clip-rule="evenodd" d="M31.3671 4.7734L27.5689 9.11171C29.1468 9.37378 30.824 9.78842 32.4417 10.3366C34.9692 11.1932 37.4714 12.4161 39.2291 13.996C42.5924 17.0191 44.8612 21.1065 45.6711 25.6018C46.481 30.0971 45.7851 34.7394 43.695 38.7831C41.605 42.8268 38.2422 46.0373 34.1466 47.899C30.051 49.7607 25.4604 50.1655 21.1119 49.0485C16.7635 47.9315 12.9095 45.3574 10.169 41.7397C7.42854 38.1219 5.96054 33.6705 6.0008 29.1002C6.00728 28.3647 6.59758 27.7738 7.31926 27.7804C8.04095 27.787 8.62074 28.3886 8.61426 29.1241C8.57926 33.0972 9.85542 36.9669 12.2378 40.1119C14.6201 43.2569 17.9705 45.4946 21.7507 46.4656C25.5309 47.4367 29.5217 47.0848 33.082 45.4663C36.6424 43.8479 39.5658 41.057 41.3827 37.5417C43.1996 34.0264 43.8046 29.9908 43.1005 26.0829C42.3964 22.175 40.4241 18.6218 37.5003 15.9937C36.1145 14.748 33.9833 13.6661 31.617 12.8642C30.4727 12.4764 29.3015 12.1636 28.1741 11.9316L31.3657 15.6642L29.3954 17.4142L23.9278 11.0199C23.4952 10.514 23.4996 9.75898 23.938 9.25822L29.417 3L31.3671 4.7734ZM23.7531 4.67737L19.4657 10.11L23.7596 15.1221L21.7909 16.874L16.7766 11.021C16.3599 10.5346 16.3456 9.81353 16.7427 9.31033L21.7165 3.00794L23.7531 4.67737Z" fill="white"/>
</svg>
